<?xml version="1.0" standalone="no"?>
<!DOCTYPE svg PUBLIC "-//W3C//DTD SVG 20010904//EN"
 "http://www.w3.org/TR/2001/REC-SVG-20010904/DTD/svg10.dtd">
<svg version="1.0" xmlns="http://www.w3.org/2000/svg"
 width="310.000000pt" height="310.000000pt" viewBox="0 0 310.000000 310.000000"
 preserveAspectRatio="xMidYMid meet">
<metadata>
Created by potrace 1.14, written by Peter Selinger 2001-2017
</metadata>
<g transform="translate(0.000000,310.000000) scale(0.100000,-0.100000)"
fill="#000000" stroke="none">
<path d="M231 2714 l-231 -387 0 -1104 c0 -1087 0 -1104 20 -1143 13 -26 34
-47 60 -60 39 -20 54 -20 1478 -20 l1438 0 38 27 c70 50 66 -23 66 1198 l0
1103 -231 386 -232 386 -1087 0 -1087 0 -232 -386z m2430 -113 c88 -145 157
-267 153 -270 -6 -6 -2534 -9 -2534 -3 0 3 42 77 85 150 28 48 153 256 192
318 l44 72 950 -2 951 -1 159 -264z m-1803 -746 c27 -30 32 -42 33 -87 0 -29
2 -60 4 -68 1 -8 5 -32 9 -52 15 -97 90 -237 168 -318 126 -132 284 -202 462
-205 71 -2 106 2 181 19 50 11 138 50 196 88 161 104 278 294 294 479 9 108
14 124 46 155 25 24 38 29 76 28 40 -1 51 -6 79 -37 l34 -36 -5 -95 c-15 -358
-271 -683 -626 -795 -73 -23 -197 -39 -284 -36 -232 7 -430 92 -595 255 -175
173 -264 377 -265 607 0 62 3 75 25 98 52 56 115 56 168 0z"/>
</g>
</svg>
